# xmcd
#
# Track frame offsets:
#       150
#       12092
#       27100
#       41232
#       56107
#       70390
#       83530
#       97757
#       109525
#       120747
#       132810
#       145912
#       159175
#       174155
#       188302
#       203030
#       217925
#       231892
#       243905
#       258080
#
# Disc length: 3638 seconds
#
# Revision: 0
# Processed by: cddbd v1.4PL0 Copyright (c) Steve Scherf et al.
# Submitted via: CD-DA_X-Tractor v0.21
#
DISCID=f40e3414
DTITLE=Ella Fitzgerald - 75th Birthday Celebration Disc
DYEAR=1900
DGENRE=
TTITLE0=a tisket a tasket
TTITLE1=cow cow boogie
TTITLE2=don't worry 'bout me
TTITLE3=5 o'clock whistle
TTITLE4=flying home
TTITLE5=into each life some rain must fall
TTITLE6=it's only a paper moon
TTITLE7=basin_street_blues
TTITLE8=in_the_evening
TTITLE9=stone_cold_dead
TTITLE10=i've got the world on a string
TTITLE11=stairway to the stars
TTITLE12=undecided
TTITLE13=you won't be satisfied
TTITLE14=i'm just a lucky so and so
TTITLE15=i didn't mean a thing
TTITLE16=og lady be good
TTITLE17=how high the moon
TTITLE18=my happiness
TTITLE19=black coffee
EXTD=
EXTT0=
EXTT1=
EXTT2=
EXTT3=
EXTT4=
EXTT5=
EXTT6=
EXTT7=
EXTT8=
EXTT9=
EXTT10=
EXTT11=
EXTT12=
EXTT13=
EXTT14=
EXTT15=
EXTT16=
EXTT17=
EXTT18=
EXTT19=
PLAYORDER=
